# xmcd CD database file
#
# Track frame offsets:
#	150
#	16201
#	39593
#	62232
#	83438
#	109230
#	134357
#	154161
#	179840
#	191550
#	206114
#	225093
#
# Disc length: 3273 seconds
#
# Revision: 0
# Processed by: cddbd v1.5.2PL0 Copyright (c) Steve Scherf et al.
# Submitted via: CDex 1.79
#
DISCID=9d0cc70c
DTITLE=Honest Talk - Nobody's Perfect
DYEAR=2018
DGENRE=Jazz
TTITLE0=I thought about you
TTITLE1=Smooth operator
TTITLE2=Workin' in a Soul Mine - Pick up the pieces
TTITLE3=Georgia on my mind
TTITLE4=Just the two of us
TTITLE5=Let's get it on
TTITLE6=Long train runnin'
TTITLE7=The greatest love of all
TTITLE8=Isn't she lovely
TTITLE9=Ain't no mountain high enough
TTITLE10=Superstition
TTITLE11=As time goes by
EXTD=YEAR: 2018
EXTT0=
EXTT1=
EXTT2=
EXTT3=
EXTT4=
EXTT5=
EXTT6=
EXTT7=
EXTT8=
EXTT9=
EXTT10=
EXTT11=
PLAYORDER=
